<svg height="512" viewBox="0 0 512 512" width="512" xmlns="http://www.w3.org/2000/svg"><g id="Fill_out_line" data-name="Fill out line"><path d="m40 456h216a0 0 0 0 1 0 0v32a0 0 0 0 1 0 0h-216a16 16 0 0 1 -16-16 16 16 0 0 1 16-16z" fill="#8fd1ec"/><path d="m258.92048 272h213.63729a16 16 0 0 1 14.89988 21.83039l-59.47825 152a16 16 0 0 1 -14.89988 10.16961h-213.63729a16 16 0 0 1 -14.89988-21.83039l59.47825-152a16 16 0 0 1 14.89988-10.16961z" fill="#8fd1ec"/><path d="m258.92048 272h181.63729a16 16 0 0 1 14.89988 21.83039l-59.47825 152a16 16 0 0 1 -14.89988 10.16961h-181.63729a16 16 0 0 1 -14.89988-21.83039l59.47825-152a16 16 0 0 1 14.89988-10.16961z" fill="#a7c82a"/><rect fill="#37a3c8" height="32" rx="16" width="216" x="208" y="456"/><path d="m24 24h352v336h-352z" fill="#f3e19f"/><path d="m168 144v80l64-40z" fill="#e94042"/><path d="m492.38086 274.46973a23.98705 23.98705 0 0 0 -19.82324-10.46973h-71.98438v16h39.98438a8.00052 8.00052 0 0 1 7.45019 10.915l-59.47851 152a7.95307 7.95307 0 0 1 -7.4502 5.085h-181.63672a8.00052 8.00052 0 0 1 -7.45019-10.915l19.63181-50.17-14.90037-5.83-19.63183 50.16988a23.98126 23.98126 0 0 0 -.27051 16.74512h-136.82129a24 24 0 0 0 0 48h368a23.9833 23.9833 0 0 0 20.03467-37.19238 24.00828 24.00828 0 0 0 7.395-10.0625l59.47851-152a23.98728 23.98728 0 0 0 -2.52732-22.27539zm-460.38086 197.53027a8.00917 8.00917 0 0 1 8-8h161.37622a23.94021 23.94021 0 0 0 0 16h-161.37622a8.00917 8.00917 0 0 1 -8-8zm376 8h-184a8 8 0 0 1 0-16h184a8 8 0 0 1 0 16zm72.00781-189.085-59.47851 152a7.95307 7.95307 0 0 1 -7.4502 5.085v.5459a23.9872 23.9872 0 0 0 -5.0791-.5459h-4.27881l59.187-151.25488a23.98126 23.98126 0 0 0 .27052-16.74512h9.37891a8.00052 8.00052 0 0 1 7.45019 10.915z"/><path d="m24 368h352a8.00039 8.00039 0 0 0 8-8v-336a8.00039 8.00039 0 0 0 -8-8h-352a8.00039 8.00039 0 0 0 -8 8v336a8.00039 8.00039 0 0 0 8 8zm8-336h336v320h-336z"/><path d="m168 232a8.00161 8.00161 0 0 0 4.24023-1.21582l64-40a8.00062 8.00062 0 0 0 0-13.56836l-64-40a8.00044 8.00044 0 0 0 -12.24023 6.78418v80a8.00046 8.00046 0 0 0 8 8zm8-73.56641 40.90527 25.56641-40.90527 25.56641z"/><circle cx="48" cy="48" r="8"/><circle cx="72" cy="48" r="8"/><circle cx="96" cy="48" r="8"/><path d="m48 64h312v16h-312z"/><path d="m112 256h-16v16h-48v16h48v16h16v-16h240v-16h-240z"/><circle cx="64" cy="328" r="8"/><circle cx="96" cy="328" r="8"/><circle cx="128" cy="328" r="8"/><circle cx="280" cy="328" r="8"/><circle cx="248" cy="328" r="8"/><circle cx="312" cy="328" r="8"/><circle cx="344" cy="328" r="8"/></g></svg>