<svg id="Layer_1" enable-background="new 0 0 512.004 512.004" height="512" viewBox="0 0 512.004 512.004" width="512" xmlns="http://www.w3.org/2000/svg"><g><g><path d="m211.16 404.038v29.485c0 11.276-5.403 21.746-14.278 27.665l-21.435 14.298h161.126l-21.435-14.298c-8.874-5.92-14.277-16.39-14.277-27.665v-29.485c-29.496 0-60.205 0-89.701 0z" fill="#bed8fb"/><path d="m211.16 404.038v29.485c0 11.276-5.403 21.746-14.277 27.665l-21.435 14.298h52.006l.452-.302c8.874-5.92 14.277-16.39 14.277-27.665v-20.413c0-5.011 4.062-9.073 9.073-9.073h49.605v-13.997h-89.701z" fill="#9dc6fb"/><path d="m351.573 474.453h-191.126c-5.322 0-9.636 4.314-9.636 9.636v10.79c0 5.322 4.314 9.636 9.636 9.636h191.126c5.322 0 9.636-4.314 9.636-9.636v-10.79c0-5.322-4.314-9.636-9.636-9.636z" fill="#dfebfa"/><path d="m204.216 494.879v-10.79c0-5.322 4.314-9.636 9.636-9.636h-53.404c-5.322 0-9.636 4.314-9.636 9.636v10.79c0 5.322 4.314 9.636 9.636 9.636h53.404c-5.322 0-9.636-4.314-9.636-9.636z" fill="#bed8fb"/><g><g><path d="m467.707 62.603h-423.393c-15.314 0-27.772 12.458-27.772 27.772v287.163c0 15.314 12.458 27.772 27.772 27.772h423.393c15.314 0 27.772-12.458 27.772-27.772v-287.163c0-15.314-12.458-27.772-27.772-27.772z" fill="#695d67"/></g></g><path d="m48.666 377.538v-287.163c0-15.314 12.458-27.772 27.772-27.772h-32.124c-15.314 0-27.772 12.458-27.772 27.772v287.163c0 15.314 12.458 27.772 27.772 27.772h32.124c-15.314 0-27.772-12.458-27.772-27.772z" fill="#554e56"/><path d="m461.421 92.665c-17.334 0-392.255 0-410.822 0-2.207 0-3.996 1.789-3.996 3.996v274.591c0 2.208 1.789 3.996 3.996 3.996h410.822c2.207 0 3.996-1.789 3.996-3.996v-274.591c0-2.207-1.789-3.996-3.996-3.996z" fill="#80b4fb"/><path d="m75.515 371.252-.001-274.591c0-2.207 1.789-3.996 3.996-3.996h-28.91c-2.207 0-3.996 1.789-3.996 3.996v274.591c0 2.208 1.789 3.996 3.996 3.996h28.911c-2.207 0-3.996-1.789-3.996-3.996z" fill="#5490f9"/><path d="m93.06 41.252h325.901v333.996h-325.901z" fill="#dfebfa"/><path d="m93.06 41.252h43.398v333.996h-43.398z" fill="#bed8fb"/><path d="m414.965 7.511h-280.507v35.74h284.503c0-16.728 0-28.38 0-31.745 0-2.206-1.789-3.995-3.996-3.995z" fill="#80b4fb"/><path d="m136.458 7.511h-39.402c-2.207 0-3.996 1.789-3.996 3.996v31.744h43.398z" fill="#ff4756"/><circle cx="256.01" cy="208.156" fill="#9dc6fb" r="114.046"/><path d="m190.869 208.156c0-54.591 38.36-100.215 89.594-111.409-7.878-1.721-16.058-2.637-24.452-2.637-62.986 0-114.046 51.06-114.046 114.046s51.06 114.046 114.046 114.046c8.395 0 16.574-.915 24.452-2.637-51.234-11.193-89.594-56.817-89.594-111.409z" fill="#80b4fb"/></g><g><path d="m467.699 55.092h-41.247c0-17.096 0-28.63 0-43.596 0-6.339-5.157-11.496-11.496-11.496-11.369 0-306.22 0-317.908 0-6.339 0-11.496 5.157-11.496 11.496v31.744 11.852h-41.246c-19.449 0-35.272 15.823-35.272 35.272v287.163c0 19.449 15.823 35.271 35.272 35.271h159.346v20.713c0 8.715-4.191 16.926-10.939 21.427l-17.995 12.003h-14.278c-9.448 0-17.136 7.688-17.136 17.137v10.789c0 9.449 7.688 17.137 17.136 17.137h78.063c4.143 0 7.5-3.357 7.5-7.5s-3.357-7.5-7.5-7.5h-78.063c-1.178 0-2.136-.959-2.136-2.137v-10.789c0-1.178.958-2.137 2.136-2.137h191.125c1.178 0 2.137.959 2.137 2.137v10.789c0 1.178-.959 2.137-2.137 2.137h-78.063c-4.143 0-7.5 3.357-7.5 7.5s3.357 7.5 7.5 7.5h78.063c9.449 0 17.137-7.688 17.137-17.137v-10.789c0-9.449-7.688-17.137-17.137-17.137h-14.278l-17.995-12.003c-6.748-4.501-10.939-12.712-10.939-21.427v-20.713h159.347c19.449 0 35.271-15.822 35.271-35.271v-287.163c0-19.449-15.823-35.272-35.272-35.272zm-323.75-40.092h267.503v20.74h-267.503zm-43.397 0h28.397v20.74h-28.397zm0 35.74h310.9v316.997h-310.9c0-18.01 0-299.296 0-316.997zm209.719 416.201h-108.539c10.609-7.421 16.919-19.853 16.919-33.43v-20.713h74.701v20.713c.001 13.578 6.309 26.01 16.919 33.43zm177.7-89.414c0 11.178-9.094 20.271-20.271 20.271-11.477 0-412.364 0-423.394 0-11.179 0-20.272-9.094-20.272-20.271v-287.163c0-11.179 9.094-20.272 20.272-20.272h41.246v15.063h-34.961c-6.339 0-11.495 5.157-11.495 11.496v274.591c0 6.339 5.156 11.496 11.495 11.496h410.822c6.339 0 11.496-5.157 11.496-11.496v-119.797c0-4.143-3.357-7.5-7.5-7.5s-7.5 3.357-7.5 7.5v116.292h-31.457v-267.583h31.457v116.291c0 4.143 3.357 7.5 7.5 7.5s7.5-3.357 7.5-7.5v-119.796c0-6.339-5.157-11.495-11.496-11.495h-34.961v-15.062h41.247c11.178 0 20.271 9.094 20.271 20.272v287.163zm-402.419-277.373v267.583h-31.456v-267.583z"/><path d="m256.002 86.6c-69.071 0-121.546 56.428-121.546 121.546 0 65.14 52.468 121.546 121.546 121.546 69.071 0 121.546-56.428 121.546-121.546 0-65.14-52.468-121.546-121.546-121.546zm-42.901 24.029c-7.008 8.975-12.31 19.164-16.414 29.684-4.56-3.074-8.911-6.517-13.013-10.325 8.615-7.979 18.545-14.553 29.427-19.359zm-39.691 30.286c5.729 5.328 11.876 10.046 18.375 14.112-3.968 14.141-6.32 29.586-6.879 45.618h-35.183c1.577-22.555 10.203-43.196 23.687-59.73zm-23.686 74.731h35.183c.56 16.032 2.911 31.477 6.879 45.618-6.499 4.066-12.646 8.784-18.375 14.112-13.485-16.534-22.111-37.175-23.687-59.73zm33.95 70.658c4.103-3.808 8.454-7.252 13.013-10.325 4.104 10.522 9.407 20.711 16.414 29.684-10.882-4.807-20.812-11.381-29.427-19.359zm64.828 27.389c-15.762-4.184-29.679-21.302-38.564-45.316 11.97-5.748 24.993-9.198 38.564-10.127zm0-70.466c-15.121.906-29.66 4.543-43.083 10.69-3.056-11.793-4.986-24.73-5.511-38.272h48.594zm0-42.581h-48.594c.525-13.542 2.455-26.479 5.511-38.272 13.423 6.147 27.962 9.785 43.083 10.69zm0-42.606c-13.571-.929-26.594-4.379-38.564-10.127 8.885-24.014 22.802-41.132 38.564-45.316zm79.828-28.053c-4.103 3.808-8.454 7.252-13.013 10.325-4.104-10.522-9.407-20.711-16.414-29.684 10.882 4.807 20.812 11.381 29.427 19.359zm-64.828-27.389c15.762 4.184 29.679 21.302 38.564 45.316-11.97 5.748-24.993 9.198-38.564 10.127zm0 70.466c15.121-.906 29.66-4.543 43.083-10.69 3.056 11.793 4.986 24.73 5.511 38.272h-48.594zm0 42.582h48.594c-.525 13.542-2.455 26.479-5.511 38.272-13.423-6.147-27.962-9.785-43.083-10.69zm0 98.047v-55.443c13.571.929 26.594 4.379 38.564 10.127-8.885 24.014-22.802 41.132-38.564 45.316zm35.401-8.031c7.008-8.974 12.31-19.164 16.414-29.684 4.559 3.074 8.911 6.517 13.013 10.325-8.615 7.979-18.545 14.553-29.427 19.359zm39.691-30.286c-5.729-5.328-11.876-10.046-18.375-14.112 3.968-14.141 6.32-29.586 6.879-45.618h35.183c-1.577 22.555-10.203 43.196-23.687 59.73zm-11.496-74.73c-.56-16.032-2.911-31.477-6.879-45.618 6.499-4.066 12.646-8.784 18.375-14.112 13.484 16.534 22.11 37.175 23.687 59.73z"/></g></g></svg>